<svg width="401.0600219726562px" height="108.3199981689453px" xmlns="http://www.w3.org/2000/svg" viewBox="49.46998901367189 20.840000915527348 401.0600219726562 108.3199981689453" style="background: none;" preserveAspectRatio="xMidYMid"><defs><linearGradient id="editing-outline-gradient" x1="1.266044443118978" x2="-0.2660444431189779" y1="-0.14278760968653947" y2="1.1427876096865395"><stop offset="0" stop-color="#4b9bbe"></stop><stop offset="1" stop-color="#3e6d8d"></stop></linearGradient><filter id="editing-outline" x="-100%" y="-100%" width="300%" height="300%"><feMorphology in="SourceGraphic" operator="dilate" radius="4" result="outline"></feMorphology><feComposite operator="out" in="outline" in2="SourceAlpha"></feComposite></filter></defs><g filter="url(#editing-outline)"><g transform="translate(113.22208648920059, 101.91294288635254)"><path d="M27.59-40.78L27.59 0L23.28 0L23.28-2.69L23.28-2.69Q21.44-1.03 19.23-0.16L19.23-0.16L19.23-0.16Q17.03 0.72 14.72 0.72L14.72 0.72L14.72 0.72Q11.25 0.72 8.50-0.41L8.50-0.41L8.50-0.41Q5.75-1.53 3.86-3.55L3.86-3.55L3.86-3.55Q1.97-5.56 0.95-8.38L0.95-8.38L0.95-8.38Q-0.06-11.19-0.06-14.53L-0.06-14.53L-0.06-14.53Q-0.06-17.84 0.95-20.67L0.95-20.67L0.95-20.67Q1.97-23.50 3.86-25.52L3.86-25.52L3.86-25.52Q5.75-27.53 8.50-28.67L8.50-28.67L8.50-28.67Q11.25-29.81 14.72-29.81L14.72-29.81L14.72-29.81Q17.03-29.81 19.23-28.98L19.23-28.98L19.23-28.98Q21.44-28.16 23.28-26.50L23.28-26.50L23.28-37.13L17.47-37.13L17.47-40.78L27.59-40.78ZM23.28-6.78L23.28-22.34L23.28-22.34Q21.44-24.38 19.27-25.28L19.27-25.28L19.27-25.28Q17.09-26.19 14.66-26.19L14.66-26.19L14.66-26.19Q12.09-26.19 10.14-25.28L10.14-25.28L10.14-25.28Q8.19-24.38 6.88-22.81L6.88-22.81L6.88-22.81Q5.56-21.25 4.89-19.14L4.89-19.14L4.89-19.14Q4.22-17.03 4.22-14.53L4.22-14.53L4.22-14.53Q4.22-12.03 4.89-9.92L4.89-9.92L4.89-9.92Q5.56-7.81 6.88-6.25L6.88-6.25L6.88-6.25Q8.19-4.69 10.14-3.78L10.14-3.78L10.14-3.78Q12.09-2.88 14.66-2.88L14.66-2.88L14.66-2.88Q19.59-2.88 23.28-6.78L23.28-6.78ZM52.41-40.78L52.41-34.94L46.59-34.94L46.59-40.78L52.41-40.78ZM58.22-3.66L58.22 0L40.75 0L40.75-3.66L47.34-3.66L47.34-25.47L40.75-25.47L40.75-29.13L51.66-29.13L51.66-3.66L58.22-3.66ZM97.47-29.13L97.47-0.31L97.47-0.31Q97.47 2.69 96.44 5.03L96.44 5.03L96.44 5.03Q95.41 7.38 93.55 9L93.55 9L93.55 9Q91.69 10.63 89.17 11.48L89.17 11.48L89.17 11.48Q86.66 12.34 83.56 12.34L83.56 12.34L83.56 12.34Q79.22 12.34 76.17 10.72L76.17 10.72L76.17 10.72Q73.13 9.09 70.91 6.03L70.91 6.03L73.91 3.72L73.91 3.72Q75.25 5.75 77.78 7.13L77.78 7.13L77.78 7.13Q80.31 8.50 83.56 8.50L83.56 8.50L83.56 8.50Q88 8.50 90.58 6.27L90.58 6.27L90.58 6.27Q93.16 4.03 93.16-0.19L93.16-0.19L93.16-3.31L93.16-3.31Q89.34 0.06 84.47 0.06L84.47 0.06L84.47 0.06Q77.63 0.06 73.72-3.84L73.72-3.84L73.72-3.84Q69.81-7.75 69.81-14.53L69.81-14.53L69.81-14.53Q69.81-17.84 70.83-20.64L70.83-20.64L70.83-20.64Q71.84-23.44 73.73-25.48L73.73-25.48L73.73-25.48Q75.63-27.53 78.34-28.67L78.34-28.67L78.34-28.67Q81.06-29.81 84.47-29.81L84.47-29.81L84.47-29.81Q86.84-29.81 89.08-28.98L89.08-28.98L89.08-28.98Q91.31-28.16 93.16-26.50L93.16-26.50L93.16-29.13L97.47-29.13ZM93.16-7.50L93.16-22.34L93.16-22.34Q91.31-24.38 89.11-25.28L89.11-25.28L89.11-25.28Q86.91-26.19 84.47-26.19L84.47-26.19L84.47-26.19Q81.91-26.19 79.95-25.28L79.95-25.28L79.95-25.28Q78-24.38 76.72-22.81L76.72-22.81L76.72-22.81Q75.44-21.25 74.77-19.11L74.77-19.11L74.77-19.11Q74.09-16.97 74.09-14.53L74.09-14.53L74.09-14.53Q74.09-9.53 76.69-6.56L76.69-6.56L76.69-6.56Q79.28-3.59 84.47-3.59L84.47-3.59L84.47-3.59Q86.91-3.59 89.11-4.52L89.11-4.52L89.11-4.52Q91.31-5.44 93.16-7.50L93.16-7.50ZM122.28-40.78L122.28-34.94L116.47-34.94L116.47-40.78L122.28-40.78ZM128.09-3.66L128.09 0L110.63 0L110.63-3.66L117.22-3.66L117.22-25.47L110.63-25.47L110.63-29.13L121.53-29.13L121.53-3.66L128.09-3.66ZM165.59-10.06L169.19-9.28L169.19-9.28Q168.69-4.69 165.58-1.98L165.58-1.98L165.58-1.98Q162.47 0.72 157.81 0.72L157.81 0.72L157.81 0.72Q155.25 0.72 153.13-0.13L153.13-0.13L153.13-0.13Q151-0.97 149.50-2.47L149.50-2.47L149.50-2.47Q148-3.97 147.17-6.08L147.17-6.08L147.17-6.08Q146.34-8.19 146.34-10.69L146.34-10.69L146.34-25.47L139.75-25.47L139.75-29.13L146.34-29.13L146.34-40.78L150.63-40.78L150.63-29.13L163.03-29.13L163.03-25.47L150.63-25.47L150.63-10.69L150.63-10.69Q150.63-9.09 151.14-7.69L151.14-7.69L151.14-7.69Q151.66-6.28 152.58-5.22L152.58-5.22L152.58-5.22Q153.50-4.16 154.81-3.55L154.81-3.55L154.81-3.55Q156.13-2.94 157.81-2.94L157.81-2.94L157.81-2.94Q161-2.94 163.14-4.92L163.14-4.92L163.14-4.92Q165.28-6.91 165.59-10.06L165.59-10.06ZM176.22-11.13L176.22-29.13L180.50-29.13L180.50-11.13L180.50-11.13Q180.50-7.22 182.20-5.08L182.20-5.08L182.20-5.08Q183.91-2.94 187.69-2.94L187.69-2.94L187.69-2.94Q190.06-2.94 191.97-4.03L191.97-4.03L191.97-4.03Q193.88-5.13 195.22-6.95L195.22-6.95L195.22-6.95Q196.56-8.78 197.27-11.14L197.27-11.14L197.27-11.14Q197.97-13.50 197.97-16.06L197.97-16.06L197.97-29.13L202.28-29.13L202.28 0L197.97 0L197.97-7.28L197.97-7.28Q194.91 0.72 186.97 0.72L186.97 0.72L186.97 0.72Q176.22 0.72 176.22-11.13L176.22-11.13ZM235.47-10.06L239.06-9.28L239.06-9.28Q238.56-4.69 235.45-1.98L235.45-1.98L235.45-1.98Q232.34 0.72 227.69 0.72L227.69 0.72L227.69 0.72Q225.13 0.72 223-0.13L223-0.13L223-0.13Q220.88-0.97 219.38-2.47L219.38-2.47L219.38-2.47Q217.88-3.97 217.05-6.08L217.05-6.08L217.05-6.08Q216.22-8.19 216.22-10.69L216.22-10.69L216.22-25.47L209.63-25.47L209.63-29.13L216.22-29.13L216.22-40.78L220.50-40.78L220.50-29.13L232.91-29.13L232.91-25.47L220.50-25.47L220.50-10.69L220.50-10.69Q220.50-9.09 221.02-7.69L221.02-7.69L221.02-7.69Q221.53-6.28 222.45-5.22L222.45-5.22L222.45-5.22Q223.38-4.16 224.69-3.55L224.69-3.55L224.69-3.55Q226-2.94 227.69-2.94L227.69-2.94L227.69-2.94Q230.88-2.94 233.02-4.92L233.02-4.92L233.02-4.92Q235.16-6.91 235.47-10.06L235.47-10.06ZM272.91-8.06L272.91-8.06L272.91-8.06Q272.91-5.50 271.63-3.81L271.63-3.81L271.63-3.81Q270.34-2.13 268.33-1.13L268.33-1.13L268.33-1.13Q266.31-0.13 263.83 0.30L263.83 0.30L263.83 0.30Q261.34 0.72 258.97 0.72L258.97 0.72L258.97 0.72Q255 0.72 251.06-0.44L251.06-0.44L251.06-0.44Q247.13-1.59 244.25-3.47L244.25-3.47L246.16-7.16L246.16-7.16Q249.38-5.13 252.50-4.03L252.50-4.03L252.50-4.03Q255.63-2.94 258.97-2.94L258.97-2.94L258.97-2.94Q268.63-2.94 268.63-7.94L268.63-7.94L268.63-7.94Q268.63-9.16 267.83-9.92L267.83-9.92L267.83-9.92Q267.03-10.69 265.69-11.17L265.69-11.17L265.69-11.17Q264.34-11.66 262.61-11.94L262.61-11.94L262.61-11.94Q260.88-12.22 258.97-12.47L258.97-12.47L258.97-12.47Q256.53-12.81 254.13-13.28L254.13-13.28L254.13-13.28Q251.72-13.75 249.73-14.69L249.73-14.69L249.73-14.69Q247.75-15.63 246.55-17.19L246.55-17.19L246.55-17.19Q245.34-18.75 245.34-21.31L245.34-21.31L245.34-21.31Q245.34-23.50 246.45-25.09L246.45-25.09L246.45-25.09Q247.56-26.69 249.42-27.75L249.42-27.75L249.42-27.75Q251.28-28.81 253.78-29.31L253.78-29.31L253.78-29.31Q256.28-29.81 258.97-29.81L258.97-29.81L258.97-29.81Q262.81-29.81 265.84-28.92L265.84-28.92L265.84-28.92Q268.88-28.03 271.31-26.38L271.31-26.38L269.59-23.03L269.59-23.03Q267.09-24.78 264.53-25.48L264.53-25.48L264.53-25.48Q261.97-26.19 258.97-26.19L258.97-26.19L258.97-26.19Q257.63-26.19 255.98-25.95L255.98-25.95L255.98-25.95Q254.34-25.72 252.94-25.14L252.94-25.14L252.94-25.14Q251.53-24.56 250.58-23.64L250.58-23.64L250.58-23.64Q249.63-22.72 249.63-21.31L249.63-21.31L249.63-21.31Q249.63-20.09 250.42-19.36L250.42-19.36L250.42-19.36Q251.22-18.63 252.56-18.14L252.56-18.14L252.56-18.14Q253.91-17.66 255.64-17.38L255.64-17.38L255.64-17.38Q257.38-17.09 259.28-16.84L259.28-16.84L259.28-16.84Q261.66-16.50 264.08-16.03L264.08-16.03L264.08-16.03Q266.50-15.56 268.48-14.66L268.48-14.66L268.48-14.66Q270.47-13.75 271.69-12.19L271.69-12.19L271.69-12.19Q272.91-10.63 272.91-8.06Z" fill="url(#editing-outline-gradient)"></path></g></g><style>text {
  font-size: 64px;
  font-family: Arial Black;
  dominant-baseline: central;
  text-anchor: middle;
}</style></svg>